<?xml version="1.0" standalone="no"?>
<!DOCTYPE svg PUBLIC "-//W3C//DTD SVG 20010904//EN"
 "http://www.w3.org/TR/2001/REC-SVG-20010904/DTD/svg10.dtd">
<svg version="1.0" xmlns="http://www.w3.org/2000/svg"
 width="512.000000pt" height="512.000000pt" viewBox="0 0 512.000000 512.000000"
 preserveAspectRatio="xMidYMid meet">

<g transform="translate(0.000000,512.000000) scale(0.100000,-0.100000)"
fill="#000000" stroke="none">
<path d="M2479 5105 c-160 -32 -279 -119 -314 -231 -38 -120 5 -249 134 -407
158 -192 212 -289 238 -428 8 -46 19 -97 23 -114 l7 -30 22 47 c52 113 37 236
-55 458 -114 273 -117 285 -118 395 -1 96 1 103 33 163 21 38 57 84 90 113 62
56 59 58 -60 34z"/>
<path d="M2045 4601 c-164 -79 -234 -216 -190 -377 25 -92 82 -166 196 -251
157 -118 229 -207 274 -338 13 -39 28 13 22 76 -9 82 -40 145 -165 330 -124
185 -154 253 -154 349 -1 74 16 120 67 191 19 27 29 49 22 49 -6 0 -39 -13
-72 -29z"/>
<path d="M1654 3545 c-728 -55 -1251 -189 -1454 -372 -89 -81 -95 -103 -87
-331 41 -1174 408 -2046 1037 -2467 234 -156 481 -247 767 -280 590 -69 1117
102 1506 489 155 154 288 339 396 553 l50 98 119 1 c132 3 203 13 330 50 324
94 568 318 660 604 23 73 27 102 27 205 0 83 -6 140 -18 185 -20 76 -73 191
-115 253 -114 165 -314 306 -527 372 -145 44 -135 38 -135 95 0 67 -26 116
-94 177 -210 186 -762 322 -1524 373 -205 13 -725 11 -938 -5z m1056 -195
c572 -46 1048 -158 1247 -292 24 -16 43 -35 43 -43 0 -14 -88 -72 -155 -100
-227 -97 -563 -171 -995 -217 -181 -20 -260 -22 -680 -23 -389 0 -508 3 -655
18 -389 40 -691 98 -930 180 -130 45 -265 117 -265 142 0 8 19 27 43 43 229
155 820 276 1492 306 139 6 725 -3 855 -14z m1546 -794 c132 -35 282 -147 348
-259 137 -232 45 -553 -204 -710 -73 -46 -139 -74 -229 -97 -83 -22 -201 -37
-201 -25 0 4 18 64 39 134 82 260 136 525 168 818 9 84 19 153 22 153 3 0 29
-6 57 -14z"/>
</g>
</svg>
